<svg width="55" height="76" viewBox="0 0 55 76" fill="none" xmlns="http://www.w3.org/2000/svg">
<path fill-rule="evenodd" clip-rule="evenodd" d="M4 2C5.10457 2 6 2.89543 6 4L6 74C6 75.1046 5.10457 76 4 76C2.89543 76 2 75.1046 2 74L2 4C2 2.89543 2.89543 2 4 2Z" fill="#FAFAFA"/>
<path d="M8 4C8 6.20914 6.20914 8 4 8C1.79086 8 0 6.20914 0 4C0 1.79086 1.79086 0 4 0C6.20914 0 8 1.79086 8 4Z" fill="#FAFAFA"/>
<path fill-rule="evenodd" clip-rule="evenodd" d="M32.5607 37.0938L32.5728 37.1038C37.0437 40.8594 41.2667 40.8782 44.7256 39.8629C47.4394 39.0663 49.6816 37.6111 51 36.6106V15.4877C48.8697 16.5529 46.3174 17.5482 43.5333 18.0582C38.0512 19.0624 31.5925 18.1639 26.1094 12.4316L26.1034 12.4253C22.8997 9.06138 18.5948 8.52584 14.1149 9.32047C10.8301 9.90311 7.85492 11.1498 6 12.0564V33.8898C8.32394 33.0352 11.1894 32.2288 14.3334 31.8903C19.9257 31.288 26.6353 32.1559 32.5607 37.0938ZM6 38.1844L5.99502 38.1865C5.85321 38.2454 5.7145 38.3041 5.57901 38.3624C4.7986 38.6982 4.12477 39.0207 3.57897 39.2979C2.87866 39.6535 2 39.1479 2 38.3624V10.2244C2 9.87771 2.17423 9.55946 2.476 9.38882C5.29544 7.79449 19.9894 0.205539 29 9.66667C36.473 17.4794 45.7922 13.9844 51 10.94C51.0167 10.9302 51.0335 10.9204 51.0501 10.9107C51.3694 10.7232 51.6731 10.5376 51.9596 10.3566C52.4464 10.0492 52.8839 9.75509 53.2652 9.48775C53.9669 8.99583 55 9.4997 55 10.3566V38.0522C55 38.3217 54.8925 38.5784 54.691 38.7574C52.6948 40.5293 41.3474 49.6985 30 40.1667C21.7115 33.2596 11.5147 35.8941 6 38.1844Z" fill="#FAFAFA"/>
</svg>
