<svg width="59" height="81" viewBox="0 0 59 81" fill="none" xmlns="http://www.w3.org/2000/svg">
<path fill-rule="evenodd" clip-rule="evenodd" d="M0 13.2453C0 9.5877 2.96031 6.62264 6.61204 6.62264H46.2843V9.67924H6.61204C4.64573 9.67924 3.05171 11.2758 3.05171 13.2453V74.3774C3.05171 76.3468 4.64573 77.9434 6.61204 77.9434H46.2843V81H6.61204C2.96031 81 0 78.0349 0 74.3774V13.2453Z" fill="white"/>
<path fill-rule="evenodd" clip-rule="evenodd" d="M50.8618 45.8491L50.8619 13.2453C50.8619 11.2758 49.2678 9.67925 47.3015 9.67925L6.61204 9.67924V6.62264L47.3015 6.62264C50.9533 6.62265 53.9136 9.5877 53.9136 13.2453L53.9136 45.8491H50.8618Z" fill="white"/>
<path fill-rule="evenodd" clip-rule="evenodd" d="M50.8618 61.1321V74.3774C50.8618 76.3468 49.2678 77.9434 47.3015 77.9434H11.6982V81H47.3015C50.9532 81 53.9136 78.0349 53.9136 74.3774V61.1321H50.8618Z" fill="white"/>
<path fill-rule="evenodd" clip-rule="evenodd" d="M26.9568 2.03774C23.9662 2.03774 21.8706 4.02843 21.8706 6.11321C21.8706 6.67591 21.4152 7.13208 20.8534 7.13208C20.2916 7.13208 19.8361 6.67591 19.8361 6.11321C19.8361 2.57093 23.2057 0 26.9568 0C30.7079 0 34.0774 2.57093 34.0774 6.11321C34.0774 6.67591 33.622 7.13208 33.0602 7.13208C32.4984 7.13208 32.043 6.67591 32.043 6.11321C32.043 4.02843 29.9473 2.03774 26.9568 2.03774Z" fill="white"/>
<path fill-rule="evenodd" clip-rule="evenodd" d="M8.64651 48.9057C8.64651 48.343 9.10195 47.8868 9.66375 47.8868H44.2498C44.8116 47.8868 45.267 48.343 45.267 48.9057C45.267 49.4684 44.8116 49.9245 44.2498 49.9245H9.66375C9.10195 49.9245 8.64651 49.4684 8.64651 48.9057Z" fill="white"/>
<path fill-rule="evenodd" clip-rule="evenodd" d="M8.64651 20.3774C8.64651 19.8147 9.10195 19.3585 9.66375 19.3585H44.2498C44.8116 19.3585 45.267 19.8147 45.267 20.3774C45.267 20.9401 44.8116 21.3962 44.2498 21.3962H9.66375C9.10195 21.3962 8.64651 20.9401 8.64651 20.3774Z" fill="white"/>
<path fill-rule="evenodd" clip-rule="evenodd" d="M8.64651 41.7736C8.64651 41.2109 9.10195 40.7547 9.66375 40.7547H44.2498C44.8116 40.7547 45.267 41.2109 45.267 41.7736C45.267 42.3363 44.8116 42.7925 44.2498 42.7925H9.66375C9.10195 42.7925 8.64651 42.3363 8.64651 41.7736Z" fill="white"/>
<path fill-rule="evenodd" clip-rule="evenodd" d="M8.64651 56.0377C8.64651 55.475 9.10195 55.0189 9.66375 55.0189H44.2498C44.8116 55.0189 45.267 55.475 45.267 56.0377C45.267 56.6004 44.8116 57.0566 44.2498 57.0566H9.66375C9.10195 57.0566 8.64651 56.6004 8.64651 56.0377Z" fill="white"/>
<path fill-rule="evenodd" clip-rule="evenodd" d="M8.64651 27.5094C8.64651 26.9467 9.10195 26.4906 9.66375 26.4906H44.2498C44.8116 26.4906 45.267 26.9467 45.267 27.5094C45.267 28.0721 44.8116 28.5283 44.2498 28.5283H9.66375C9.10195 28.5283 8.64651 28.0721 8.64651 27.5094Z" fill="white"/>
<path fill-rule="evenodd" clip-rule="evenodd" d="M8.64651 34.6415C8.64651 34.0788 9.10195 33.6226 9.66375 33.6226H44.2498C44.8116 33.6226 45.267 34.0788 45.267 34.6415C45.267 35.2042 44.8116 35.6604 44.2498 35.6604H9.66375C9.10195 35.6604 8.64651 35.2042 8.64651 34.6415Z" fill="white"/>
<path d="M16.7844 5.98314C16.7844 5.42043 17.2398 4.96427 17.8016 4.96427H36.1119C36.6737 4.96427 37.1292 5.42043 37.1292 5.98314V11.0775H16.7844V5.98314Z" fill="white"/>
<path fill-rule="evenodd" clip-rule="evenodd" d="M43.3767 72.0294C42.9097 72.1052 42.4341 71.9598 42.089 71.6357L31.5079 61.6992C30.8932 61.1219 30.8621 60.1548 31.4385 59.539C32.0148 58.9233 32.9805 58.8921 33.5952 59.4694L42.7331 68.0506L56.1321 43.2709C56.5335 42.5287 57.4595 42.2529 58.2005 42.6549C58.9415 43.0569 59.2169 43.9844 58.8156 44.7266L44.4744 71.2486C44.2491 71.6653 43.8436 71.9537 43.3767 72.0294Z" fill="white"/>
<path fill-rule="evenodd" clip-rule="evenodd" d="M53.9136 63.1698L50.8618 61.1321L53.9136 55.5283V63.1698Z" fill="white"/>
<path fill-rule="evenodd" clip-rule="evenodd" d="M50.8618 51.4528L51.3705 50.434L53.9136 45.8828L50.8618 40.6526V51.4528Z" fill="white"/>
</svg>
