<svg width="68" height="72" viewBox="0 0 68 72" fill="none" xmlns="http://www.w3.org/2000/svg">
<path fill-rule="evenodd" clip-rule="evenodd" d="M63.7309 2.43038H35.0673V0H63.7309C66.0887 0 68 1.90421 68 4.25316V17.0127H65.5605V4.25316C65.5605 3.24647 64.7414 2.43038 63.7309 2.43038Z" fill="#FAFAFA"/>
<path fill-rule="evenodd" clip-rule="evenodd" d="M31.4081 4.25317V13.9747H28.9686V4.25317C28.9686 1.90421 30.8799 1.07566e-06 33.2377 9.72984e-07L50.9238 2.02778e-07V2.43038L33.2377 2.43038C32.2272 2.43038 31.4081 3.24647 31.4081 4.25317Z" fill="#FAFAFA"/>
<path fill-rule="evenodd" clip-rule="evenodd" d="M42.3857 22.481C42.3857 23.1521 42.9317 23.6962 43.6054 23.6962L63.7309 23.6962C66.0887 23.6962 68 21.792 68 19.443V6.68354C68 6.01241 67.4539 5.46835 66.7803 5.46835C66.1066 5.46835 65.5605 6.01241 65.5605 6.68354V19.443C65.5605 20.4497 64.7414 21.2658 63.7309 21.2658L43.6054 21.2658C42.9317 21.2658 42.3857 21.8099 42.3857 22.481Z" fill="#FAFAFA"/>
<path fill-rule="evenodd" clip-rule="evenodd" d="M28.3587 45.5696C19.8897 45.5696 13.1121 38.857 13.1121 30.6835C13.1121 22.5101 19.8897 15.7975 28.3587 15.7975C36.8278 15.7975 43.6054 22.5101 43.6054 30.6835C43.6054 38.857 36.8278 45.5696 28.3587 45.5696ZM28.3587 48.6076C18.2542 48.6076 10.0628 40.5827 10.0628 30.6835C10.0628 20.7844 18.2542 12.7595 28.3587 12.7595C38.4633 12.7595 46.6547 20.7844 46.6547 30.6835C46.6547 40.5827 38.4633 48.6076 28.3587 48.6076Z" fill="#FAFAFA"/>
<path fill-rule="evenodd" clip-rule="evenodd" d="M28.3587 48.9114C42.5542 48.9114 53.6682 58.7698 53.6682 70.481C53.6682 71.3199 54.3508 72 55.1928 72C56.0349 72 56.7175 71.3199 56.7175 70.481C56.7175 56.6892 43.8034 45.8734 28.3587 45.8734C12.9141 45.8734 0 56.6892 0 70.481C0 71.3199 0.682614 72 1.52466 72C2.36671 72 3.04933 71.3199 3.04933 70.481C3.04933 58.7698 14.1633 48.9114 28.3587 48.9114Z" fill="#FAFAFA"/>
<path d="M41.1 14.1958C41.7148 14.1958 42.2271 13.7194 42.2271 13.0219C42.2271 12.3073 41.7148 11.814 41.1 11.814C40.4853 11.814 39.973 12.3073 39.973 13.0219C39.973 13.7194 40.4853 14.1958 41.1 14.1958Z" fill="#FAFAFA"/>
<path d="M44.9989 14.1958C45.6136 14.1958 46.1259 13.7194 46.1259 13.0219C46.1259 12.3073 45.6136 11.814 44.9989 11.814C44.3841 11.814 43.8718 12.3073 43.8718 13.0219C43.8718 13.7194 44.3841 14.1958 44.9989 14.1958Z" fill="#FAFAFA"/>
<path d="M48.8977 14.1958C49.5125 14.1958 50.0248 13.7194 50.0248 13.0219C50.0248 12.3073 49.5125 11.814 48.8977 11.814C48.283 11.814 47.7707 12.3073 47.7707 13.0219C47.7707 13.7194 48.283 14.1958 48.8977 14.1958Z" fill="#FAFAFA"/>
<path d="M52.7966 14.1958C53.4113 14.1958 53.9236 13.7194 53.9236 13.0219C53.9236 12.3073 53.4113 11.814 52.7966 11.814C52.1818 11.814 51.6695 12.3073 51.6695 13.0219C51.6695 13.7194 52.1818 14.1958 52.7966 14.1958Z" fill="#FAFAFA"/>
<path d="M56.6954 14.1958C57.3102 14.1958 57.8225 13.7194 57.8225 13.0219C57.8225 12.3073 57.3102 11.814 56.6954 11.814C56.0807 11.814 55.5684 12.3073 55.5684 13.0219C55.5684 13.7194 56.0807 14.1958 56.6954 14.1958Z" fill="#FAFAFA"/>
</svg>
