<svg width="54" height="78" viewBox="0 0 54 78" fill="none" xmlns="http://www.w3.org/2000/svg">
<path fill-rule="evenodd" clip-rule="evenodd" d="M16.5 25.3077C14.2602 25.3077 12.4677 23.608 12.4677 21.5385C12.4677 19.4689 14.2602 17.7692 16.5 17.7692C18.7398 17.7692 20.5323 19.4689 20.5323 21.5385C20.5323 23.608 18.7398 25.3077 16.5 25.3077ZM16.5 26.0769C13.8277 26.0769 11.6613 24.045 11.6613 21.5385C11.6613 19.0319 13.8277 17 16.5 17C19.1723 17 21.3387 19.0319 21.3387 21.5385C21.3387 24.045 19.1723 26.0769 16.5 26.0769Z" fill="#FAFAFA"/>
<path fill-rule="evenodd" clip-rule="evenodd" d="M16.5 26.1538C20.2543 26.1538 23.1935 28.6501 23.1935 31.6154C23.1935 31.8278 23.3741 32 23.5968 32C23.8195 32 24 31.8278 24 31.6154C24 28.1232 20.5846 25.3846 16.5 25.3846C12.4154 25.3846 9 28.1232 9 31.6154C9 31.8278 9.18053 32 9.40323 32C9.62592 32 9.80645 31.8278 9.80645 31.6154C9.80645 28.6501 12.7457 26.1538 16.5 26.1538Z" fill="#FAFAFA"/>
<path fill-rule="evenodd" clip-rule="evenodd" d="M49 11H5C3.89543 11 3 11.8954 3 13V73C3 74.1046 3.89543 75 5 75H49C50.1046 75 51 74.1046 51 73V13C51 11.8954 50.1046 11 49 11ZM5 8C2.23858 8 0 10.2386 0 13V73C0 75.7614 2.23858 78 5 78H49C51.7614 78 54 75.7614 54 73V13C54 10.2386 51.7614 8 49 8H5Z" fill="#FAFAFA"/>
<path fill-rule="evenodd" clip-rule="evenodd" d="M27 2C24.0601 2 22 3.95383 22 6C22 6.55228 21.5523 7 21 7C20.4477 7 20 6.55228 20 6C20 2.52332 23.3125 0 27 0C30.6875 0 34 2.52332 34 6C34 6.55228 33.5523 7 33 7C32.4477 7 32 6.55228 32 6C32 3.95383 29.9399 2 27 2Z" fill="#FAFAFA"/>
<path fill-rule="evenodd" clip-rule="evenodd" d="M31 20.25C31 19.8358 31.3358 19.5 31.75 19.5H45.25C45.6642 19.5 46 19.8358 46 20.25C46 20.6642 45.6642 21 45.25 21H31.75C31.3358 21 31 20.6642 31 20.25Z" fill="#FAFAFA"/>
<path fill-rule="evenodd" clip-rule="evenodd" d="M8 42C8 41.4477 8.44772 41 9 41H45C45.5523 41 46 41.4477 46 42C46 42.5523 45.5523 43 45 43H9C8.44772 43 8 42.5523 8 42Z" fill="#FAFAFA"/>
<path fill-rule="evenodd" clip-rule="evenodd" d="M8 60C8 59.4477 8.44772 59 9 59H45C45.5523 59 46 59.4477 46 60C46 60.5523 45.5523 61 45 61H9C8.44772 61 8 60.5523 8 60Z" fill="#FAFAFA"/>
<path fill-rule="evenodd" clip-rule="evenodd" d="M31 25.25C31 24.8358 31.3358 24.5 31.75 24.5H45.25C45.6642 24.5 46 24.8358 46 25.25C46 25.6642 45.6642 26 45.25 26H31.75C31.3358 26 31 25.6642 31 25.25Z" fill="#FAFAFA"/>
<path fill-rule="evenodd" clip-rule="evenodd" d="M8 48C8 47.4477 8.44772 47 9 47H45C45.5523 47 46 47.4477 46 48C46 48.5523 45.5523 49 45 49H9C8.44772 49 8 48.5523 8 48Z" fill="#FAFAFA"/>
<path fill-rule="evenodd" clip-rule="evenodd" d="M8 66C8 65.4477 8.44772 65 9 65H45C45.5523 65 46 65.4477 46 66C46 66.5523 45.5523 67 45 67H9C8.44772 67 8 66.5523 8 66Z" fill="#FAFAFA"/>
<path fill-rule="evenodd" clip-rule="evenodd" d="M31 30.25C31 29.8358 31.3358 29.5 31.75 29.5H45.25C45.6642 29.5 46 29.8358 46 30.25C46 30.6642 45.6642 31 45.25 31H31.75C31.3358 31 31 30.6642 31 30.25Z" fill="#FAFAFA"/>
<path fill-rule="evenodd" clip-rule="evenodd" d="M8 54C8 53.4477 8.44772 53 9 53H45C45.5523 53 46 53.4477 46 54C46 54.5523 45.5523 55 45 55H9C8.44772 55 8 54.5523 8 54Z" fill="#FAFAFA"/>
<path d="M17 7C17 6.44772 17.4477 6 18 6H36C36.5523 6 37 6.44772 37 7V12H17V7Z" fill="#FAFAFA"/>
</svg>
