<svg width="77" height="66" viewBox="0 0 77 66" fill="none" xmlns="http://www.w3.org/2000/svg">
<path fill-rule="evenodd" clip-rule="evenodd" d="M72 15.5H5C3.89543 15.5 3 16.3954 3 17.5V36.6092C3 37.5917 3.71932 38.4216 4.67384 38.5651C30.7151 42.4799 45.9871 42.4788 72.3219 38.5589C73.2788 38.4164 74 37.5852 74 36.6018V17.5C74 16.3954 73.1046 15.5 72 15.5ZM5 12.5C2.23858 12.5 0 14.7386 0 17.5V36.6092C0 39.0677 1.79669 41.1662 4.22785 41.5317C30.5666 45.4913 46.1377 45.4894 72.7636 41.5262C75.1985 41.1638 77 39.0635 77 36.6018V17.5C77 14.7386 74.7614 12.5 72 12.5H5Z" fill="#FAFAFA"/>
<path fill-rule="evenodd" clip-rule="evenodd" d="M6.5 41.5V59.5C6.5 61.433 8.067 63 10 63H67C68.933 63 70.5 61.433 70.5 59.5V41.5H73.5V59.5C73.5 63.0899 70.5899 66 67 66H10C6.41015 66 3.5 63.0899 3.5 59.5V41.5H6.5Z" fill="#FAFAFA"/>
<path fill-rule="evenodd" clip-rule="evenodd" d="M38 3C32.0755 3 27.5 7.37348 27.5 12.5C27.5 13.3284 26.8284 14 26 14C25.1716 14 24.5 13.3284 24.5 12.5C24.5 5.47625 30.6697 0 38 0C45.3303 0 51.5 5.47625 51.5 12.5C51.5 13.3284 50.8284 14 50 14C49.1716 14 48.5 13.3284 48.5 12.5C48.5 7.37348 43.9245 3 38 3Z" fill="#FAFAFA"/>
<path d="M40 37.5C40 36.3954 39.1046 35.5 38 35.5C36.8954 35.5 36 36.3954 36 37.5C36 38.6046 36.8954 39.5 38 39.5C39.1046 39.5 40 38.6046 40 37.5Z" fill="#FAFAFA"/>
</svg>
