<svg width="200" height="60" viewBox="0 0 200 60" fill="none" xmlns="http://www.w3.org/2000/svg">
<rect width="200" height="60" rx="20" fill="white"/>
<path d="M28 30C28 18.9543 36.9543 10 48 10C59.0457 10 68 18.9543 68 30C68 41.0457 59.0457 50 48 50C36.9543 50 28 41.0457 28 30Z" fill="white"/>
<path fill-rule="evenodd" clip-rule="evenodd" d="M52.3891 18C52.5985 19.4222 52.0196 20.8155 51.256 21.8012C50.439 22.8586 49.0308 23.6764 47.6664 23.6337C47.4173 22.2721 48.055 20.8692 48.831 19.9261C49.6822 18.8853 51.141 18.0867 52.3891 18ZM56.4878 38.018C57.1912 36.94 57.454 36.3962 58 35.1791C54.0286 33.6688 53.3922 28.0228 57.3226 25.8557C56.1238 24.3523 54.4391 23.4808 52.8489 23.4808C51.7031 23.4808 50.918 23.7799 50.2043 24.0517C49.6096 24.2782 49.0644 24.4859 48.4012 24.4859C47.6847 24.4859 47.0501 24.2583 46.3856 24.0201C45.6555 23.7583 44.8893 23.4836 43.9385 23.4836C42.154 23.4836 40.2545 24.574 39.0502 26.4381C37.3574 29.0636 37.6461 33.9992 40.3913 38.2039C41.3726 39.7086 42.6836 41.3993 44.3983 41.4144C45.1099 41.4215 45.5833 41.2092 46.0957 40.9793C46.6821 40.7163 47.3195 40.4304 48.4231 40.4246C49.5333 40.4179 50.1606 40.7073 50.7393 40.9742C51.2385 41.2044 51.7014 41.418 52.4069 41.4103C54.123 41.3965 55.5066 39.5228 56.4878 38.018Z" fill="#0B0B0A"/>
<path d="M86.46 32.185L84.543 27.172C84.405 26.83 84.267 26.398 84.129 25.876C84.063 26.134 83.994 26.374 83.922 26.596C83.856 26.818 83.79 27.016 83.724 27.19L81.816 32.185H86.46ZM90.249 37H88.773C88.605 37 88.467 36.958 88.359 36.874C88.251 36.79 88.173 36.682 88.125 36.55L86.982 33.553H81.285L80.142 36.55C80.1 36.664 80.022 36.769 79.908 36.865C79.794 36.955 79.656 37 79.494 37H78.018L83.166 24.076H85.101L90.249 37ZM93.2224 34.75C93.5104 35.128 93.8194 35.392 94.1494 35.542C94.4854 35.692 94.8604 35.767 95.2744 35.767C96.0784 35.767 96.6994 35.479 97.1374 34.903C97.5814 34.321 97.8034 33.475 97.8034 32.365C97.8034 31.783 97.7524 31.288 97.6504 30.88C97.5544 30.466 97.4104 30.13 97.2184 29.872C97.0324 29.608 96.8014 29.416 96.5254 29.296C96.2494 29.17 95.9374 29.107 95.5894 29.107C95.0794 29.107 94.6354 29.221 94.2574 29.449C93.8854 29.677 93.5404 30.001 93.2224 30.421V34.75ZM93.1324 29.224C93.3244 28.996 93.5284 28.789 93.7444 28.603C93.9664 28.411 94.2034 28.249 94.4554 28.117C94.7074 27.979 94.9744 27.874 95.2564 27.802C95.5444 27.724 95.8504 27.685 96.1744 27.685C96.6964 27.685 97.1674 27.787 97.5874 27.991C98.0134 28.195 98.3764 28.495 98.6764 28.891C98.9764 29.287 99.2074 29.776 99.3694 30.358C99.5374 30.94 99.6214 31.609 99.6214 32.365C99.6214 33.043 99.5284 33.673 99.3424 34.255C99.1624 34.831 98.9014 35.332 98.5594 35.758C98.2234 36.184 97.8094 36.52 97.3174 36.766C96.8314 37.006 96.2824 37.126 95.6704 37.126C95.1244 37.126 94.6564 37.036 94.2664 36.856C93.8764 36.676 93.5284 36.424 93.2224 36.1V40.069H91.4674V27.856H92.5204C92.7664 27.856 92.9194 27.973 92.9794 28.207L93.1324 29.224ZM103.347 34.75C103.635 35.128 103.944 35.392 104.274 35.542C104.61 35.692 104.985 35.767 105.399 35.767C106.203 35.767 106.824 35.479 107.262 34.903C107.706 34.321 107.928 33.475 107.928 32.365C107.928 31.783 107.877 31.288 107.775 30.88C107.679 30.466 107.535 30.13 107.343 29.872C107.157 29.608 106.926 29.416 106.65 29.296C106.374 29.17 106.062 29.107 105.714 29.107C105.204 29.107 104.76 29.221 104.382 29.449C104.01 29.677 103.665 30.001 103.347 30.421V34.75ZM103.257 29.224C103.449 28.996 103.653 28.789 103.869 28.603C104.091 28.411 104.328 28.249 104.58 28.117C104.832 27.979 105.099 27.874 105.381 27.802C105.669 27.724 105.975 27.685 106.299 27.685C106.821 27.685 107.292 27.787 107.712 27.991C108.138 28.195 108.501 28.495 108.801 28.891C109.101 29.287 109.332 29.776 109.494 30.358C109.662 30.94 109.746 31.609 109.746 32.365C109.746 33.043 109.653 33.673 109.467 34.255C109.287 34.831 109.026 35.332 108.684 35.758C108.348 36.184 107.934 36.52 107.442 36.766C106.956 37.006 106.407 37.126 105.795 37.126C105.249 37.126 104.781 37.036 104.391 36.856C104.001 36.676 103.653 36.424 103.347 36.1V40.069H101.592V27.856H102.645C102.891 27.856 103.044 27.973 103.104 28.207L103.257 29.224ZM113.517 23.716V37H111.753V23.716H113.517ZM122.081 31.411C122.081 31.063 122.03 30.742 121.928 30.448C121.832 30.154 121.688 29.899 121.496 29.683C121.304 29.467 121.07 29.299 120.794 29.179C120.518 29.059 120.2 28.999 119.84 28.999C119.102 28.999 118.52 29.212 118.094 29.638C117.674 30.064 117.407 30.655 117.293 31.411H122.081ZM123.53 35.695C123.314 35.947 123.065 36.166 122.783 36.352C122.501 36.532 122.201 36.679 121.883 36.793C121.565 36.907 121.235 36.991 120.893 37.045C120.557 37.099 120.224 37.126 119.894 37.126C119.264 37.126 118.679 37.021 118.139 36.811C117.605 36.595 117.14 36.283 116.744 35.875C116.354 35.461 116.048 34.951 115.826 34.345C115.61 33.733 115.502 33.031 115.502 32.239C115.502 31.603 115.601 31.012 115.799 30.466C115.997 29.914 116.279 29.434 116.645 29.026C117.017 28.618 117.47 28.297 118.004 28.063C118.538 27.829 119.138 27.712 119.804 27.712C120.362 27.712 120.875 27.805 121.343 27.991C121.817 28.171 122.225 28.435 122.567 28.783C122.909 29.131 123.176 29.56 123.368 30.07C123.566 30.58 123.665 31.162 123.665 31.816C123.665 32.086 123.635 32.269 123.575 32.365C123.515 32.455 123.404 32.5 123.242 32.5H117.248C117.266 33.046 117.344 33.523 117.482 33.931C117.62 34.333 117.809 34.669 118.049 34.939C118.295 35.209 118.586 35.41 118.922 35.542C119.258 35.674 119.633 35.74 120.047 35.74C120.437 35.74 120.773 35.695 121.055 35.605C121.343 35.515 121.589 35.419 121.793 35.317C122.003 35.209 122.177 35.11 122.315 35.02C122.459 34.93 122.585 34.885 122.693 34.885C122.837 34.885 122.948 34.939 123.026 35.047L123.53 35.695ZM137.151 26.182C137.091 26.284 137.028 26.359 136.962 26.407C136.896 26.455 136.812 26.479 136.71 26.479C136.602 26.479 136.479 26.431 136.341 26.335C136.203 26.233 136.029 26.122 135.819 26.002C135.615 25.876 135.369 25.765 135.081 25.669C134.793 25.567 134.448 25.516 134.046 25.516C133.668 25.516 133.335 25.567 133.047 25.669C132.765 25.765 132.528 25.9 132.336 26.074C132.144 26.242 131.997 26.443 131.895 26.677C131.799 26.905 131.751 27.154 131.751 27.424C131.751 27.772 131.838 28.06 132.012 28.288C132.192 28.516 132.426 28.711 132.714 28.873C133.002 29.035 133.329 29.176 133.695 29.296C134.061 29.416 134.436 29.542 134.82 29.674C135.204 29.8 135.579 29.947 135.945 30.115C136.311 30.283 136.638 30.496 136.926 30.754C137.214 31.006 137.445 31.318 137.619 31.69C137.799 32.056 137.889 32.506 137.889 33.04C137.889 33.61 137.79 34.144 137.592 34.642C137.4 35.14 137.118 35.575 136.746 35.947C136.374 36.319 135.915 36.613 135.369 36.829C134.829 37.039 134.214 37.144 133.524 37.144C133.11 37.144 132.708 37.102 132.318 37.018C131.928 36.94 131.559 36.829 131.211 36.685C130.863 36.535 130.536 36.358 130.23 36.154C129.93 35.944 129.66 35.71 129.42 35.452L129.969 34.534C130.023 34.462 130.086 34.402 130.158 34.354C130.236 34.306 130.323 34.282 130.419 34.282C130.545 34.282 130.689 34.348 130.851 34.48C131.019 34.612 131.223 34.759 131.463 34.921C131.709 35.077 132 35.221 132.336 35.353C132.678 35.485 133.092 35.551 133.578 35.551C133.974 35.551 134.328 35.5 134.64 35.398C134.952 35.29 135.213 35.14 135.423 34.948C135.639 34.75 135.804 34.513 135.918 34.237C136.032 33.961 136.089 33.655 136.089 33.319C136.089 32.941 136.002 32.632 135.828 32.392C135.654 32.152 135.423 31.951 135.135 31.789C134.847 31.627 134.52 31.489 134.154 31.375C133.788 31.261 133.413 31.144 133.029 31.024C132.645 30.898 132.27 30.754 131.904 30.592C131.538 30.43 131.211 30.22 130.923 29.962C130.635 29.698 130.404 29.371 130.23 28.981C130.056 28.585 129.969 28.099 129.969 27.523C129.969 27.061 130.059 26.614 130.239 26.182C130.419 25.75 130.68 25.369 131.022 25.039C131.37 24.703 131.796 24.436 132.3 24.238C132.804 24.034 133.38 23.932 134.028 23.932C134.754 23.932 135.42 24.049 136.026 24.283C136.638 24.511 137.169 24.841 137.619 25.273L137.151 26.182ZM142.353 37.144C141.615 37.144 141.045 36.937 140.643 36.523C140.247 36.109 140.049 35.518 140.049 34.75V29.278H138.987C138.885 29.278 138.798 29.248 138.726 29.188C138.66 29.122 138.627 29.026 138.627 28.9V28.189L140.112 27.982L140.508 25.255C140.532 25.153 140.577 25.075 140.643 25.021C140.715 24.961 140.805 24.931 140.913 24.931H141.804V28H144.396V29.278H141.804V34.633C141.804 34.993 141.891 35.263 142.065 35.443C142.245 35.617 142.473 35.704 142.749 35.704C142.911 35.704 143.049 35.683 143.163 35.641C143.283 35.599 143.385 35.554 143.469 35.506C143.553 35.452 143.625 35.404 143.685 35.362C143.745 35.32 143.799 35.299 143.847 35.299C143.907 35.299 143.952 35.314 143.982 35.344C144.018 35.368 144.054 35.41 144.09 35.47L144.612 36.316C144.324 36.58 143.982 36.784 143.586 36.928C143.19 37.072 142.779 37.144 142.353 37.144ZM149.857 27.712C150.529 27.712 151.135 27.823 151.675 28.045C152.221 28.261 152.683 28.576 153.061 28.99C153.445 29.398 153.739 29.893 153.943 30.475C154.147 31.051 154.249 31.699 154.249 32.419C154.249 33.139 154.147 33.79 153.943 34.372C153.739 34.954 153.445 35.449 153.061 35.857C152.683 36.265 152.221 36.58 151.675 36.802C151.135 37.018 150.529 37.126 149.857 37.126C149.179 37.126 148.567 37.018 148.021 36.802C147.481 36.58 147.019 36.265 146.635 35.857C146.251 35.449 145.954 34.954 145.744 34.372C145.54 33.79 145.438 33.139 145.438 32.419C145.438 31.699 145.54 31.051 145.744 30.475C145.954 29.893 146.251 29.398 146.635 28.99C147.019 28.576 147.481 28.261 148.021 28.045C148.567 27.823 149.179 27.712 149.857 27.712ZM149.857 35.758C150.721 35.758 151.366 35.467 151.792 34.885C152.218 34.303 152.431 33.484 152.431 32.428C152.431 31.372 152.218 30.553 151.792 29.971C151.366 29.383 150.721 29.089 149.857 29.089C148.981 29.089 148.327 29.383 147.895 29.971C147.469 30.553 147.256 31.372 147.256 32.428C147.256 33.484 147.469 34.303 147.895 34.885C148.327 35.467 148.981 35.758 149.857 35.758ZM157.864 29.611C158.158 29.011 158.512 28.54 158.926 28.198C159.34 27.856 159.838 27.685 160.42 27.685C160.618 27.685 160.804 27.709 160.978 27.757C161.158 27.799 161.314 27.865 161.446 27.955L161.329 29.278C161.287 29.44 161.188 29.521 161.032 29.521C160.948 29.521 160.822 29.506 160.654 29.476C160.486 29.44 160.306 29.422 160.114 29.422C159.832 29.422 159.583 29.464 159.367 29.548C159.151 29.626 158.956 29.746 158.782 29.908C158.614 30.064 158.464 30.259 158.332 30.493C158.2 30.721 158.077 30.982 157.963 31.276V37H156.208V27.856H157.216C157.408 27.856 157.537 27.892 157.603 27.964C157.675 28.03 157.726 28.15 157.756 28.324L157.864 29.611ZM168.522 31.411C168.522 31.063 168.471 30.742 168.369 30.448C168.273 30.154 168.129 29.899 167.937 29.683C167.745 29.467 167.511 29.299 167.235 29.179C166.959 29.059 166.641 28.999 166.281 28.999C165.543 28.999 164.961 29.212 164.535 29.638C164.115 30.064 163.848 30.655 163.734 31.411H168.522ZM169.971 35.695C169.755 35.947 169.506 36.166 169.224 36.352C168.942 36.532 168.642 36.679 168.324 36.793C168.006 36.907 167.676 36.991 167.334 37.045C166.998 37.099 166.665 37.126 166.335 37.126C165.705 37.126 165.12 37.021 164.58 36.811C164.046 36.595 163.581 36.283 163.185 35.875C162.795 35.461 162.489 34.951 162.267 34.345C162.051 33.733 161.943 33.031 161.943 32.239C161.943 31.603 162.042 31.012 162.24 30.466C162.438 29.914 162.72 29.434 163.086 29.026C163.458 28.618 163.911 28.297 164.445 28.063C164.979 27.829 165.579 27.712 166.245 27.712C166.803 27.712 167.316 27.805 167.784 27.991C168.258 28.171 168.666 28.435 169.008 28.783C169.35 29.131 169.617 29.56 169.809 30.07C170.007 30.58 170.106 31.162 170.106 31.816C170.106 32.086 170.076 32.269 170.016 32.365C169.956 32.455 169.845 32.5 169.683 32.5H163.689C163.707 33.046 163.785 33.523 163.923 33.931C164.061 34.333 164.25 34.669 164.49 34.939C164.736 35.209 165.027 35.41 165.363 35.542C165.699 35.674 166.074 35.74 166.488 35.74C166.878 35.74 167.214 35.695 167.496 35.605C167.784 35.515 168.03 35.419 168.234 35.317C168.444 35.209 168.618 35.11 168.756 35.02C168.9 34.93 169.026 34.885 169.134 34.885C169.278 34.885 169.389 34.939 169.467 35.047L169.971 35.695Z" fill="#666666"/>
</svg>
