<svg width="200" height="60" viewBox="0 0 200 60" fill="none" xmlns="http://www.w3.org/2000/svg">
<rect width="200" height="60" rx="20" fill="white"/>
<path d="M47 50C58.0457 50 67 41.0457 67 30C67 18.9543 58.0457 10 47 10C35.9543 10 27 18.9543 27 30C27 41.0457 35.9543 50 47 50Z" fill="white"/>
<path d="M55.0389 34.0377C57.9026 32.4501 60.0896 31.2375 60.2886 31.127C60.882 30.798 61.5038 29.9584 60.2886 29.2873C59.898 29.0712 57.7697 27.8957 55.0355 26.3848L51.2749 30.2231L55.0389 34.0377Z" fill="#FFE300"/>
<path d="M51.275 30.2229L39.2471 42.4989C39.5187 42.5338 39.8454 42.461 40.2212 42.2526C40.9991 41.8214 49.354 37.1891 55.0392 34.0371L51.275 30.2229Z" fill="#FF4E54"/>
<path d="M51.2748 30.223L55.0355 26.3847C55.0355 26.3847 41.0578 18.6604 40.221 18.198C39.8994 18.0202 39.5487 17.9581 39.2383 18.0282L51.2748 30.223Z" fill="#00F085"/>
<path d="M51.2749 30.223L39.2381 18.0283C38.7409 18.1406 38.3335 18.5765 38.3335 19.4525V41.0359C38.3335 41.8609 38.654 42.4411 39.2467 42.499L51.2749 30.223Z" fill="#00E0FF"/>
<path d="M89.141 30.709V35.749C88.487 36.217 87.791 36.568 87.053 36.802C86.315 37.03 85.511 37.144 84.641 37.144C83.597 37.144 82.652 36.982 81.806 36.658C80.966 36.334 80.249 35.881 79.655 35.299C79.061 34.717 78.602 34.021 78.278 33.211C77.96 32.401 77.801 31.51 77.801 30.538C77.801 29.56 77.954 28.666 78.26 27.856C78.572 27.04 79.016 26.344 79.592 25.768C80.168 25.186 80.864 24.736 81.68 24.418C82.502 24.094 83.423 23.932 84.443 23.932C84.959 23.932 85.436 23.971 85.874 24.049C86.318 24.127 86.729 24.238 87.107 24.382C87.485 24.526 87.833 24.7 88.151 24.904C88.475 25.102 88.775 25.327 89.051 25.579L88.502 26.443C88.418 26.581 88.307 26.668 88.169 26.704C88.031 26.74 87.881 26.707 87.719 26.605C87.563 26.515 87.389 26.41 87.197 26.29C87.011 26.17 86.786 26.059 86.522 25.957C86.264 25.855 85.961 25.768 85.613 25.696C85.265 25.624 84.854 25.588 84.38 25.588C83.672 25.588 83.033 25.705 82.463 25.939C81.893 26.167 81.407 26.497 81.005 26.929C80.603 27.361 80.294 27.883 80.078 28.495C79.862 29.101 79.754 29.782 79.754 30.538C79.754 31.33 79.868 32.041 80.096 32.671C80.324 33.295 80.645 33.826 81.059 34.264C81.479 34.696 81.986 35.026 82.58 35.254C83.18 35.482 83.849 35.596 84.587 35.596C84.875 35.596 85.142 35.581 85.388 35.551C85.64 35.515 85.88 35.467 86.108 35.407C86.336 35.347 86.555 35.272 86.765 35.182C86.981 35.092 87.194 34.993 87.404 34.885V32.176H85.496C85.376 32.176 85.277 32.14 85.199 32.068C85.127 31.996 85.091 31.906 85.091 31.798V30.709H89.141ZM95.1554 27.712C95.8274 27.712 96.4334 27.823 96.9734 28.045C97.5194 28.261 97.9814 28.576 98.3594 28.99C98.7434 29.398 99.0374 29.893 99.2414 30.475C99.4454 31.051 99.5474 31.699 99.5474 32.419C99.5474 33.139 99.4454 33.79 99.2414 34.372C99.0374 34.954 98.7434 35.449 98.3594 35.857C97.9814 36.265 97.5194 36.58 96.9734 36.802C96.4334 37.018 95.8274 37.126 95.1554 37.126C94.4774 37.126 93.8654 37.018 93.3194 36.802C92.7794 36.58 92.3174 36.265 91.9334 35.857C91.5494 35.449 91.2524 34.954 91.0424 34.372C90.8384 33.79 90.7364 33.139 90.7364 32.419C90.7364 31.699 90.8384 31.051 91.0424 30.475C91.2524 29.893 91.5494 29.398 91.9334 28.99C92.3174 28.576 92.7794 28.261 93.3194 28.045C93.8654 27.823 94.4774 27.712 95.1554 27.712ZM95.1554 35.758C96.0194 35.758 96.6644 35.467 97.0904 34.885C97.5164 34.303 97.7294 33.484 97.7294 32.428C97.7294 31.372 97.5164 30.553 97.0904 29.971C96.6644 29.383 96.0194 29.089 95.1554 29.089C94.2794 29.089 93.6254 29.383 93.1934 29.971C92.7674 30.553 92.5544 31.372 92.5544 32.428C92.5544 33.484 92.7674 34.303 93.1934 34.885C93.6254 35.467 94.2794 35.758 95.1554 35.758ZM105.403 27.712C106.075 27.712 106.681 27.823 107.221 28.045C107.767 28.261 108.229 28.576 108.607 28.99C108.991 29.398 109.285 29.893 109.489 30.475C109.693 31.051 109.795 31.699 109.795 32.419C109.795 33.139 109.693 33.79 109.489 34.372C109.285 34.954 108.991 35.449 108.607 35.857C108.229 36.265 107.767 36.58 107.221 36.802C106.681 37.018 106.075 37.126 105.403 37.126C104.725 37.126 104.113 37.018 103.567 36.802C103.027 36.58 102.565 36.265 102.181 35.857C101.797 35.449 101.5 34.954 101.29 34.372C101.086 33.79 100.984 33.139 100.984 32.419C100.984 31.699 101.086 31.051 101.29 30.475C101.5 29.893 101.797 29.398 102.181 28.99C102.565 28.576 103.027 28.261 103.567 28.045C104.113 27.823 104.725 27.712 105.403 27.712ZM105.403 35.758C106.267 35.758 106.912 35.467 107.338 34.885C107.764 34.303 107.977 33.484 107.977 32.428C107.977 31.372 107.764 30.553 107.338 29.971C106.912 29.383 106.267 29.089 105.403 29.089C104.527 29.089 103.873 29.383 103.441 29.971C103.015 30.553 102.802 31.372 102.802 32.428C102.802 33.484 103.015 34.303 103.441 34.885C103.873 35.467 104.527 35.758 105.403 35.758ZM114.915 32.437C115.227 32.437 115.5 32.395 115.734 32.311C115.974 32.227 116.172 32.11 116.328 31.96C116.49 31.804 116.61 31.618 116.688 31.402C116.772 31.186 116.814 30.949 116.814 30.691C116.814 30.163 116.652 29.743 116.328 29.431C116.01 29.113 115.539 28.954 114.915 28.954C114.297 28.954 113.826 29.113 113.502 29.431C113.184 29.743 113.025 30.163 113.025 30.691C113.025 30.949 113.064 31.186 113.142 31.402C113.226 31.612 113.346 31.795 113.502 31.951C113.664 32.101 113.862 32.221 114.096 32.311C114.336 32.395 114.609 32.437 114.915 32.437ZM117.714 37.477C117.714 37.261 117.654 37.09 117.534 36.964C117.414 36.832 117.249 36.73 117.039 36.658C116.835 36.58 116.595 36.526 116.319 36.496C116.043 36.46 115.752 36.433 115.446 36.415C115.146 36.397 114.837 36.382 114.519 36.37C114.201 36.352 113.895 36.322 113.601 36.28C113.289 36.436 113.031 36.625 112.827 36.847C112.629 37.069 112.53 37.33 112.53 37.63C112.53 37.822 112.578 38.002 112.674 38.17C112.776 38.338 112.929 38.482 113.133 38.602C113.343 38.728 113.604 38.824 113.916 38.89C114.234 38.962 114.612 38.998 115.05 38.998C115.482 38.998 115.863 38.959 116.193 38.881C116.523 38.809 116.799 38.704 117.021 38.566C117.249 38.434 117.42 38.275 117.534 38.089C117.654 37.903 117.714 37.699 117.714 37.477ZM119.496 28.198V28.855C119.496 29.071 119.361 29.206 119.091 29.26L118.11 29.404C118.194 29.59 118.26 29.788 118.308 29.998C118.356 30.202 118.38 30.418 118.38 30.646C118.38 31.096 118.293 31.504 118.119 31.87C117.945 32.23 117.705 32.539 117.399 32.797C117.093 33.055 116.727 33.253 116.301 33.391C115.881 33.529 115.419 33.598 114.915 33.598C114.501 33.598 114.114 33.553 113.754 33.463C113.574 33.571 113.436 33.691 113.34 33.823C113.25 33.949 113.205 34.075 113.205 34.201C113.205 34.411 113.292 34.567 113.466 34.669C113.646 34.771 113.877 34.846 114.159 34.894C114.447 34.936 114.774 34.963 115.14 34.975C115.512 34.987 115.887 35.008 116.265 35.038C116.649 35.062 117.024 35.11 117.39 35.182C117.762 35.248 118.089 35.359 118.371 35.515C118.659 35.665 118.89 35.875 119.064 36.145C119.244 36.409 119.334 36.754 119.334 37.18C119.334 37.576 119.235 37.96 119.037 38.332C118.845 38.704 118.563 39.034 118.191 39.322C117.819 39.61 117.366 39.841 116.832 40.015C116.298 40.189 115.692 40.276 115.014 40.276C114.336 40.276 113.745 40.21 113.241 40.078C112.743 39.946 112.326 39.769 111.99 39.547C111.66 39.325 111.411 39.067 111.243 38.773C111.081 38.479 111 38.173 111 37.855C111 37.411 111.138 37.036 111.414 36.73C111.69 36.418 112.071 36.175 112.557 36.001C112.293 35.881 112.083 35.719 111.927 35.515C111.771 35.305 111.693 35.029 111.693 34.687C111.693 34.555 111.717 34.42 111.765 34.282C111.813 34.138 111.885 33.997 111.981 33.859C112.083 33.715 112.206 33.58 112.35 33.454C112.5 33.328 112.671 33.214 112.863 33.112C112.413 32.86 112.059 32.527 111.801 32.113C111.543 31.693 111.414 31.204 111.414 30.646C111.414 30.196 111.501 29.791 111.675 29.431C111.849 29.071 112.089 28.762 112.395 28.504C112.707 28.246 113.076 28.048 113.502 27.91C113.934 27.772 114.405 27.703 114.915 27.703C115.707 27.703 116.388 27.868 116.958 28.198H119.496ZM122.906 23.716V37H121.142V23.716H122.906ZM131.47 31.411C131.47 31.063 131.419 30.742 131.317 30.448C131.221 30.154 131.077 29.899 130.885 29.683C130.693 29.467 130.459 29.299 130.183 29.179C129.907 29.059 129.589 28.999 129.229 28.999C128.491 28.999 127.909 29.212 127.483 29.638C127.063 30.064 126.796 30.655 126.682 31.411H131.47ZM132.919 35.695C132.703 35.947 132.454 36.166 132.172 36.352C131.89 36.532 131.59 36.679 131.272 36.793C130.954 36.907 130.624 36.991 130.282 37.045C129.946 37.099 129.613 37.126 129.283 37.126C128.653 37.126 128.068 37.021 127.528 36.811C126.994 36.595 126.529 36.283 126.133 35.875C125.743 35.461 125.437 34.951 125.215 34.345C124.999 33.733 124.891 33.031 124.891 32.239C124.891 31.603 124.99 31.012 125.188 30.466C125.386 29.914 125.668 29.434 126.034 29.026C126.406 28.618 126.859 28.297 127.393 28.063C127.927 27.829 128.527 27.712 129.193 27.712C129.751 27.712 130.264 27.805 130.732 27.991C131.206 28.171 131.614 28.435 131.956 28.783C132.298 29.131 132.565 29.56 132.757 30.07C132.955 30.58 133.054 31.162 133.054 31.816C133.054 32.086 133.024 32.269 132.964 32.365C132.904 32.455 132.793 32.5 132.631 32.5H126.637C126.655 33.046 126.733 33.523 126.871 33.931C127.009 34.333 127.198 34.669 127.438 34.939C127.684 35.209 127.975 35.41 128.311 35.542C128.647 35.674 129.022 35.74 129.436 35.74C129.826 35.74 130.162 35.695 130.444 35.605C130.732 35.515 130.978 35.419 131.182 35.317C131.392 35.209 131.566 35.11 131.704 35.02C131.848 34.93 131.974 34.885 132.082 34.885C132.226 34.885 132.337 34.939 132.415 35.047L132.919 35.695ZM143.768 30.727C144.254 30.727 144.68 30.664 145.046 30.538C145.418 30.412 145.727 30.235 145.973 30.007C146.225 29.773 146.414 29.497 146.54 29.179C146.666 28.855 146.729 28.498 146.729 28.108C146.729 27.322 146.483 26.704 145.991 26.254C145.505 25.804 144.764 25.579 143.768 25.579H141.77V30.727H143.768ZM143.768 24.076C144.596 24.076 145.316 24.172 145.928 24.364C146.54 24.556 147.047 24.829 147.449 25.183C147.851 25.531 148.148 25.954 148.34 26.452C148.538 26.95 148.637 27.502 148.637 28.108C148.637 28.714 148.532 29.272 148.322 29.782C148.112 30.286 147.803 30.721 147.395 31.087C146.987 31.453 146.477 31.738 145.865 31.942C145.259 32.14 144.56 32.239 143.768 32.239H141.77V37H139.853V24.076H143.768ZM152.138 23.716V37H150.374V23.716H152.138ZM159.559 32.941C158.845 32.965 158.239 33.022 157.741 33.112C157.243 33.196 156.838 33.31 156.526 33.454C156.214 33.598 155.989 33.769 155.851 33.967C155.713 34.159 155.644 34.375 155.644 34.615C155.644 34.843 155.68 35.041 155.752 35.209C155.83 35.371 155.932 35.506 156.058 35.614C156.19 35.716 156.343 35.791 156.517 35.839C156.691 35.887 156.88 35.911 157.084 35.911C157.354 35.911 157.6 35.884 157.822 35.83C158.05 35.776 158.263 35.701 158.461 35.605C158.659 35.503 158.848 35.38 159.028 35.236C159.208 35.092 159.385 34.927 159.559 34.741V32.941ZM154.411 29.134C154.921 28.648 155.473 28.285 156.067 28.045C156.667 27.805 157.324 27.685 158.038 27.685C158.56 27.685 159.022 27.772 159.424 27.946C159.826 28.114 160.165 28.351 160.441 28.657C160.717 28.963 160.924 29.329 161.062 29.755C161.206 30.181 161.278 30.652 161.278 31.168V37H160.495C160.321 37 160.189 36.973 160.099 36.919C160.009 36.859 159.937 36.751 159.883 36.595L159.694 35.794C159.46 36.01 159.229 36.202 159.001 36.37C158.773 36.532 158.533 36.673 158.281 36.793C158.035 36.907 157.771 36.994 157.489 37.054C157.207 37.114 156.895 37.144 156.553 37.144C156.193 37.144 155.854 37.096 155.536 37C155.224 36.898 154.951 36.745 154.717 36.541C154.483 36.337 154.297 36.082 154.159 35.776C154.027 35.47 153.961 35.113 153.961 34.705C153.961 34.345 154.057 34 154.249 33.67C154.447 33.334 154.765 33.034 155.203 32.77C155.647 32.506 156.223 32.29 156.931 32.122C157.645 31.954 158.521 31.858 159.559 31.834V31.168C159.559 30.478 159.412 29.962 159.118 29.62C158.824 29.278 158.392 29.107 157.822 29.107C157.438 29.107 157.114 29.155 156.85 29.251C156.592 29.347 156.367 29.455 156.175 29.575C155.989 29.689 155.824 29.794 155.68 29.89C155.542 29.986 155.398 30.034 155.248 30.034C155.128 30.034 155.023 30.001 154.933 29.935C154.849 29.869 154.78 29.791 154.726 29.701L154.411 29.134ZM171.391 27.856L166.315 39.655C166.261 39.787 166.189 39.889 166.099 39.961C166.009 40.033 165.877 40.069 165.703 40.069H164.398L166.072 36.424L162.319 27.856H163.849C163.999 27.856 164.116 27.892 164.2 27.964C164.284 28.036 164.344 28.117 164.38 28.207L166.702 33.697C166.75 33.835 166.795 33.976 166.837 34.12C166.885 34.258 166.924 34.396 166.954 34.534C166.996 34.39 167.041 34.249 167.089 34.111C167.137 33.967 167.188 33.826 167.242 33.688L169.483 28.207C169.525 28.105 169.591 28.021 169.681 27.955C169.771 27.889 169.873 27.856 169.987 27.856H171.391Z" fill="#666666"/>
</svg>
